# xmcd
#
# Track frame offsets: 
#        150
#        16017
#        38477
#        55665
#        67165
#        89652
#        108415
#        125487
#        151197
#        157040
#        168212
#        178700
#        188940
#        199412
#        212005
#        222237
#        236070
#        247217
#
# Disc length: 3432 seconds
#
# Revision: 3
# Processed by: cddbd v1.5.2PL0 Copyright (c) Steve Scherf et al.
# Submitted via: ExactAudioCopy v1.3
#
DISCID=020d6612
DTITLE=Eric Clapton And The Yardbirds - Eric Clapton And The Yardbirds
DYEAR=1900
DGENRE=
TTITLE0=Louise
TTITLE1=Five Long Years
TTITLE2=Early In The Morning
TTITLE3=Pounds And Stomps
TTITLE4=First Time I Met The Blues
TTITLE5=They Call It Stormy Monday
TTITLE6=Big Boss Man
TTITLE7=She's So Respectable
TTITLE8=Choker
TTITLE9=Snake Drive
TTITLE10=West Coast Idea
TTITLE11=Eric's Blues
TTITLE12=Got To Hurry
TTITLE13=Freightloader
TTITLE14=A Certain Girl
TTITLE15=Draggin' My Tail
TTITLE16=For Your Love
TTITLE17=I Wish You Would
EXTD=
EXTT0=
EXTT1=
EXTT2=
EXTT3=
EXTT4=
EXTT5=
EXTT6=
EXTT7=
EXTT8=
EXTT9=
EXTT10=
EXTT11=
EXTT12=
EXTT13=
EXTT14=
EXTT15=
EXTT16=
EXTT17=
PLAYORDER=
